<?xml version="1.0" encoding="UTF-8" standalone="no"?>
<!-- Created with Inkscape (http://www.inkscape.org/) -->

<svg
   xmlns:osb="http://www.openswatchbook.org/uri/2009/osb"
   xmlns:dc="http://purl.org/dc/elements/1.1/"
   xmlns:cc="http://creativecommons.org/ns#"
   xmlns:rdf="http://www.w3.org/1999/02/22-rdf-syntax-ns#"
   xmlns:svg="http://www.w3.org/2000/svg"
   xmlns="http://www.w3.org/2000/svg"
   xmlns:sodipodi="http://sodipodi.sourceforge.net/DTD/sodipodi-0.dtd"
   xmlns:inkscape="http://www.inkscape.org/namespaces/inkscape"
   width="744.09448819"
   height="1052.3622047"
   id="svg2"
   version="1.1"
   inkscape:version="0.48.0 r9654"
   sodipodi:docname="ConbineMethod.eps">
  <defs
     id="defs4">
    <marker
       inkscape:stockid="Arrow2Sstart"
       orient="auto"
       refY="0.0"
       refX="0.0"
       id="Arrow2Sstart"
       style="overflow:visible">
      <path
         id="path5832"
         style="font-size:12.0;fill-rule:evenodd;stroke-width:0.62500000;stroke-linejoin:round"
         d="M 8.7185878,4.0337352 L -2.2072895,0.016013256 L 8.7185884,-4.0017078 C 6.9730900,-1.6296469 6.9831476,1.6157441 8.7185878,4.0337352 z "
         transform="scale(0.3) translate(-2.3,0)" />
    </marker>
    <marker
       inkscape:stockid="Tail"
       orient="auto"
       refY="0.0"
       refX="0.0"
       id="Tail"
       style="overflow:visible">
      <g
         id="g5838"
         transform="scale(-1.2)">
        <path
           id="path5840"
           d="M -3.8048674,-3.9585227 L 0.54352094,0"
           style="fill:none;fill-rule:evenodd;stroke:#000000;stroke-width:0.8;marker-start:none;marker-end:none;stroke-linecap:round" />
        <path
           id="path5842"
           d="M -1.2866832,-3.9585227 L 3.0617053,0"
           style="fill:none;fill-rule:evenodd;stroke:#000000;stroke-width:0.8;marker-start:none;marker-end:none;stroke-linecap:round" />
        <path
           id="path5844"
           d="M 1.3053582,-3.9585227 L 5.6537466,0"
           style="fill:none;fill-rule:evenodd;stroke:#000000;stroke-width:0.8;marker-start:none;marker-end:none;stroke-linecap:round" />
        <path
           id="path5846"
           d="M -3.8048674,4.1775838 L 0.54352094,0.21974226"
           style="fill:none;fill-rule:evenodd;stroke:#000000;stroke-width:0.8;marker-start:none;marker-end:none;stroke-linecap:round" />
        <path
           id="path5848"
           d="M -1.2866832,4.1775838 L 3.0617053,0.21974226"
           style="fill:none;fill-rule:evenodd;stroke:#000000;stroke-width:0.8;marker-start:none;marker-end:none;stroke-linecap:round" />
        <path
           id="path5850"
           d="M 1.3053582,4.1775838 L 5.6537466,0.21974226"
           style="fill:none;fill-rule:evenodd;stroke:#000000;stroke-width:0.8;marker-start:none;marker-end:none;stroke-linecap:round" />
      </g>
    </marker>
    <marker
       inkscape:stockid="Arrow2Mend"
       orient="auto"
       refY="0.0"
       refX="0.0"
       id="Arrow2Mend"
       style="overflow:visible;">
      <path
         id="path5829"
         style="font-size:12.0;fill-rule:evenodd;stroke-width:0.62500000;stroke-linejoin:round;"
         d="M 8.7185878,4.0337352 L -2.2072895,0.016013256 L 8.7185884,-4.0017078 C 6.9730900,-1.6296469 6.9831476,1.6157441 8.7185878,4.0337352 z "
         transform="scale(0.6) rotate(180) translate(0,0)" />
    </marker>
    <marker
       inkscape:stockid="Arrow1Mend"
       orient="auto"
       refY="0.0"
       refX="0.0"
       id="Arrow1Mend"
       style="overflow:visible;">
      <path
         id="path5811"
         d="M 0.0,0.0 L 5.0,-5.0 L -12.5,0.0 L 5.0,5.0 L 0.0,0.0 z "
         style="fill-rule:evenodd;stroke:#000000;stroke-width:1.0pt;marker-start:none;"
         transform="scale(0.4) rotate(180) translate(10,0)" />
    </marker>
    <marker
       inkscape:stockid="Arrow1Send"
       orient="auto"
       refY="0.0"
       refX="0.0"
       id="Arrow1Send"
       style="overflow:visible;">
      <path
         id="path5817"
         d="M 0.0,0.0 L 5.0,-5.0 L -12.5,0.0 L 5.0,5.0 L 0.0,0.0 z "
         style="fill-rule:evenodd;stroke:#000000;stroke-width:1.0pt;marker-start:none;"
         transform="scale(0.2) rotate(180) translate(6,0)" />
    </marker>
    <marker
       inkscape:stockid="Arrow2Lend"
       orient="auto"
       refY="0.0"
       refX="0.0"
       id="Arrow2Lend"
       style="overflow:visible;">
      <path
         id="path5823"
         style="font-size:12.0;fill-rule:evenodd;stroke-width:0.62500000;stroke-linejoin:round;"
         d="M 8.7185878,4.0337352 L -2.2072895,0.016013256 L 8.7185884,-4.0017078 C 6.9730900,-1.6296469 6.9831476,1.6157441 8.7185878,4.0337352 z "
         transform="scale(1.1) rotate(180) translate(1,0)" />
    </marker>
    <marker
       inkscape:stockid="TriangleInM"
       orient="auto"
       refY="0.0"
       refX="0.0"
       id="TriangleInM"
       style="overflow:visible">
      <path
         id="path5939"
         d="M 5.77,0.0 L -2.88,5.0 L -2.88,-5.0 L 5.77,0.0 z "
         style="fill-rule:evenodd;stroke:#000000;stroke-width:1.0pt;marker-start:none"
         transform="scale(-0.4)" />
    </marker>
    <marker
       inkscape:stockid="Arrow1Mstart"
       orient="auto"
       refY="0.0"
       refX="0.0"
       id="Arrow1Mstart"
       style="overflow:visible">
      <path
         id="path5808"
         d="M 0.0,0.0 L 5.0,-5.0 L -12.5,0.0 L 5.0,5.0 L 0.0,0.0 z "
         style="fill-rule:evenodd;stroke:#000000;stroke-width:1.0pt;marker-start:none"
         transform="scale(0.4) translate(10,0)" />
    </marker>
    <marker
       inkscape:stockid="Arrow1Lend"
       orient="auto"
       refY="0.0"
       refX="0.0"
       id="Arrow1Lend"
       style="overflow:visible;">
      <path
         id="path5805"
         d="M 0.0,0.0 L 5.0,-5.0 L -12.5,0.0 L 5.0,5.0 L 0.0,0.0 z "
         style="fill-rule:evenodd;stroke:#000000;stroke-width:1.0pt;marker-start:none;"
         transform="scale(0.8) rotate(180) translate(12.5,0)" />
    </marker>
    <linearGradient
       id="linearGradient6861"
       osb:paint="solid">
      <stop
         style="stop-color:#000000;stop-opacity:1;"
         offset="0"
         id="stop6863" />
    </linearGradient>
    <marker
       inkscape:stockid="Arrow1Send"
       orient="auto"
       refY="0"
       refX="0"
       id="Arrow1Send-1"
       style="overflow:visible">
      <path
         inkscape:connector-curvature="0"
         id="path5817-7"
         d="M 0,0 5,-5 -12.5,0 5,5 0,0 z"
         style="fill-rule:evenodd;stroke:#000000;stroke-width:1pt;marker-start:none"
         transform="matrix(-0.2,0,0,-0.2,-1.2,0)" />
    </marker>
    <marker
       inkscape:stockid="Arrow1Send"
       orient="auto"
       refY="0"
       refX="0"
       id="Arrow1Send-9"
       style="overflow:visible">
      <path
         inkscape:connector-curvature="0"
         id="path5817-5"
         d="M 0,0 5,-5 -12.5,0 5,5 0,0 z"
         style="fill-rule:evenodd;stroke:#000000;stroke-width:1pt;marker-start:none"
         transform="matrix(-0.2,0,0,-0.2,-1.2,0)" />
    </marker>
    <marker
       inkscape:stockid="Arrow1Send"
       orient="auto"
       refY="0"
       refX="0"
       id="marker3031"
       style="overflow:visible">
      <path
         inkscape:connector-curvature="0"
         id="path3033"
         d="M 0,0 5,-5 -12.5,0 5,5 0,0 z"
         style="fill-rule:evenodd;stroke:#000000;stroke-width:1pt;marker-start:none"
         transform="matrix(-0.2,0,0,-0.2,-1.2,0)" />
    </marker>
    <marker
       inkscape:stockid="Arrow1Send"
       orient="auto"
       refY="0"
       refX="0"
       id="Arrow1Send-6"
       style="overflow:visible">
      <path
         inkscape:connector-curvature="0"
         id="path5817-9"
         d="M 0,0 5,-5 -12.5,0 5,5 0,0 z"
         style="fill-rule:evenodd;stroke:#000000;stroke-width:1pt;marker-start:none"
         transform="matrix(-0.2,0,0,-0.2,-1.2,0)" />
    </marker>
  </defs>
  <sodipodi:namedview
     id="base"
     pagecolor="#ffffff"
     bordercolor="#666666"
     borderopacity="1.0"
     inkscape:pageopacity="0.0"
     inkscape:pageshadow="2"
     inkscape:zoom="0.75069212"
     inkscape:cx="123.60984"
     inkscape:cy="542.20832"
     inkscape:document-units="px"
     inkscape:current-layer="layer1"
     showgrid="false"
     inkscape:window-width="1680"
     inkscape:window-height="975"
     inkscape:window-x="0"
     inkscape:window-y="25"
     inkscape:window-maximized="1" />
  <metadata
     id="metadata7">
    <rdf:RDF>
      <cc:Work
         rdf:about="">
        <dc:format>image/svg+xml</dc:format>
        <dc:type
           rdf:resource="http://purl.org/dc/dcmitype/StillImage" />
        <dc:title></dc:title>
      </cc:Work>
    </rdf:RDF>
  </metadata>
  <g
     inkscape:label="Layer 1"
     inkscape:groupmode="layer"
     id="layer1">
    <path
       style="fill:#a12c00;fill-opacity:0.20416667;stroke:#000000;stroke-width:0.69727349px;stroke-linecap:butt;stroke-linejoin:miter;stroke-opacity:1"
       d="m 206.41389,562.92848 c 30.74517,2.82063 79.87973,-80.64329 83.16745,51.00999 26.80985,30.72947 40.85985,72.23337 43.09245,117.66994 -25.67997,79.09785 -15.72777,128.33085 -44.31005,115.03647 -13.6619,41.21217 -30.51983,32.56456 -3.74305,65.01941 20.54819,55.17961 0.522,41.16397 -12.34227,39.36223 l -55.97256,53.36098 c 0,0 29.27778,91.0964 -43.91666,-9.76037 C 99.194747,893.77036 43.358265,1117.1001 84.906498,916.93666 113.94537,777.03854 71.701028,864.28563 88.071949,814.28602 112.30217,740.28276 55.281193,787.14223 96.75493,667.65595 137.63075,549.89233 206.41389,562.92848 206.41389,562.92848 z"
       id="path2987-0"
       inkscape:connector-curvature="0"
       sodipodi:nodetypes="cccccccssssc" />
    <path
       style="fill:#a1e900;fill-opacity:0.25416667;stroke:#008000;stroke-width:0.45831916px;stroke-linecap:butt;stroke-linejoin:miter;stroke-opacity:0.34583333"
       d="m 196.77321,671.36962 c -15.28726,-60.80314 20.42056,-90.47111 168.49002,-18.59061 78.95956,44.46861 35.79659,83.10241 41.05556,124.04972 5.6469,30.88556 3.13454,58.10665 -8.72819,81.12833 -12.81097,47.4924 -46.64547,72.56268 -40.75547,111.30619 -19.74585,23.53088 29.61134,86.59745 -33.12399,65.43555 l -53.13966,-69.37768 -14.16325,-30.95905 c -43.1708,31.43675 -50.08401,26.60005 -61.76744,1.74391 -13.07703,-27.62569 -3.28984,4.99582 9.07798,-53.08165 -13.41361,-45.84988 -13.15712,-96.99468 -4.33795,-120.45046 0.0272,-32.25487 22.79422,-54.29915 -2.60761,-91.20425 z"
       id="path3757-4"
       inkscape:connector-curvature="0"
       sodipodi:nodetypes="cccccccccccc" />
    <path
       style="fill:none;stroke:#ec0000;stroke-width:7.38711786;stroke-linecap:butt;stroke-linejoin:miter;stroke-miterlimit:4;stroke-opacity:1;stroke-dasharray:none"
       d="m 167.45894,642.77984 c 7.216,65.99275 -24.1367,38.54307 -41.65313,44.61519 -46.277116,80.04585 -1.58331,92.90244 -9.49983,124.48191 1.72432,28.43804 19.26188,3.25996 42.01849,18.72737 -0.38988,30.70643 20.45621,93.27252 37.99938,113.46578 35.67371,-8.44841 69.89435,-17.66754 54.076,-53.42805 -17.95692,-38.67107 -78.97188,-51.37824 -36.17246,-126.68511 15.74451,-15.63326 38.03595,12.69735 44.21078,-67.19821 -19.12818,-62.73132 -88.22055,-111.50691 -90.97923,-53.97888 z"
       id="path3763-8"
       inkscape:connector-curvature="0"
       sodipodi:nodetypes="ccccccccc" />
    <path
       style="fill:none;stroke:#00f200;stroke-width:5.73877192;stroke-linecap:butt;stroke-linejoin:miter;stroke-miterlimit:4;stroke-opacity:1;stroke-dasharray:none"
       d="m 276.12095,688.86522 c 6.50667,44.1694 42.48103,73.35395 26.68644,77.41807 -41.72814,53.57522 -11.97045,40.7981 -19.10881,61.93446 1.55482,19.03377 -46.54719,51.58201 -26.35696,60.82848 40.83119,13.54754 58.9692,29.9861 83.35391,15.48361 32.16703,-5.65457 27.49617,-25.83399 13.23275,-49.76875 -16.19176,-25.88279 -40.62331,-37.33706 -2.03103,-87.74048 14.19683,-10.46344 34.29706,8.49843 39.8649,-44.97622 -17.24788,-41.9865 -113.15368,-71.68308 -115.6412,-33.17917 z"
       id="path3763-5-7"
       inkscape:connector-curvature="0"
       sodipodi:nodetypes="ccccccccc" />
    <path
       style="fill:none;stroke:#0000c0;stroke-width:1.81494224;stroke-linecap:butt;stroke-linejoin:miter;stroke-miterlimit:4;stroke-opacity:1;stroke-dasharray:none;stroke-dashoffset:0;marker-start:none;marker-end:url(#Arrow1Send)"
       d="m 246.57979,665.30452 c 18.98065,21.37472 22.47943,19.19951 27.2028,45.4047 17.88911,45.07528 17.72173,65.89665 8.76563,84.02558"
       id="path7093-5-2"
       inkscape:connector-curvature="0"
       sodipodi:nodetypes="ccc" />
    <path
       sodipodi:type="arc"
       style="fill:#000000;fill-opacity:1;stroke:#b75400;stroke-width:1.25;stroke-miterlimit:4;stroke-opacity:1;stroke-dasharray:none"
       id="path7061-7-7"
       sodipodi:cx="370.35275"
       sodipodi:cy="360.29166"
       sodipodi:rx="3.6336496"
       sodipodi:ry="3.3541381"
       d="m 373.9864,360.29166 a 3.6336496,3.3541381 0 1 1 -7.2673,0 3.6336496,3.3541381 0 1 1 7.2673,0 z"
       transform="matrix(1.4818385,0,0,2.6544379,-304.93943,-293.60057)" />
    <path
       style="fill:#a12c00;fill-opacity:0.20416667;stroke:#000000;stroke-width:0.74143434px;stroke-linecap:butt;stroke-linejoin:miter;stroke-opacity:1"
       d="m 303.90344,77.840269 c 56.19192,1.744972 145.9935,-49.889631 152.00237,31.557111 48.99946,19.01066 74.67817,44.68688 78.75863,72.79603 -46.93442,48.93355 -28.74512,79.39134 -80.98399,71.16683 -24.9694,25.49573 -55.78008,20.14593 -6.84107,40.22398 37.55526,34.13663 0.95406,25.46592 -22.55752,24.35129 l -102.29918,33.01154 c 0,0 53.51002,56.35639 -80.26503,-6.03821 C 107.94261,282.51422 5.8921449,420.67625 81.828458,296.84595 134.90183,210.29857 57.693263,264.27361 87.613848,233.34156 131.89862,187.55975 27.68328,216.54917 103.48344,142.62949 c 74.70735,-72.853977 200.42,-64.789221 200.42,-64.789221 z"
       id="path2987-0-1"
       inkscape:connector-curvature="0"
       sodipodi:nodetypes="cccccccssssc" />
    <path
       style="fill:#a1e900;fill-opacity:0.25416667;stroke:#008000;stroke-width:0.48734611px;stroke-linecap:butt;stroke-linejoin:miter;stroke-opacity:0.34583333"
       d="m 286.28351,144.92693 c -27.94001,-37.61561 37.32197,-55.969573 307.94355,-11.501 144.31173,27.51031 65.42423,51.41095 75.03587,76.74283 10.32065,19.10723 5.72889,35.94744 -15.95221,50.18971 -23.4142,29.38097 -85.25235,44.8906 -74.4874,68.85911 -36.08884,14.55727 54.11964,53.57317 -60.53962,40.48144 l -97.12159,-42.92023 -25.88567,-19.15268 c -78.90185,19.44822 -91.53687,16.45601 -112.89028,1.07887 -23.90047,-17.09053 -6.01273,3.09063 16.5915,-32.83874 -24.51558,-28.36485 -24.04681,-60.00536 -7.92832,-74.51618 0.0497,-19.95434 41.66024,-33.59194 -4.76583,-56.42313 z"
       id="path3757-4-0"
       inkscape:connector-curvature="0"
       sodipodi:nodetypes="cccccccccccc" />
    <path
       style="fill:none;stroke:#ec0000;stroke-width:7.85496998;stroke-linecap:butt;stroke-linejoin:miter;stroke-miterlimit:4;stroke-opacity:1;stroke-dasharray:none"
       d="m 232.70679,127.23998 c 13.18843,40.82614 -44.11382,23.84451 -76.12804,27.601 -84.579124,49.52003 -2.89375,57.47371 -17.36252,77.01022 3.15149,17.59307 35.2043,2.01675 76.79581,11.5856 -0.71258,18.99641 37.38712,57.70266 69.45017,70.19514 65.19965,-5.22658 127.74358,-10.92995 98.8329,-33.05305 -32.81925,-23.92368 -144.33426,-31.78493 -66.1112,-78.37321 28.77572,-9.67145 69.51704,7.85517 80.80256,-41.57188 C 364.02654,121.82532 237.74874,91.650507 232.70679,127.23998 z"
       id="path3763-8-4"
       inkscape:connector-curvature="0"
       sodipodi:nodetypes="ccccccccc" />
    <path
       style="fill:none;stroke:#00f200;stroke-width:6.10222864;stroke-linecap:butt;stroke-linejoin:miter;stroke-miterlimit:4;stroke-opacity:1;stroke-dasharray:none"
       d="m 431.30472,155.75051 c 11.892,27.32521 77.64114,45.38011 48.77389,47.89437 -76.26511,33.14408 -21.878,25.23956 -34.92452,38.31549 2.8417,11.77516 -85.07273,31.911 -48.17175,37.63129 74.62582,8.38113 107.77605,18.55077 152.34316,9.57887 58.7906,-3.49818 50.25383,-15.98209 24.18505,-30.78924 -29.59315,-16.01228 -74.24586,-23.09841 -3.71205,-54.28028 25.94709,-6.47316 62.68359,5.25753 72.85977,-27.82435 -31.5234,-25.97477 -206.80721,-44.34643 -211.35355,-20.52615 z"
       id="path3763-5-7-2"
       inkscape:connector-curvature="0"
       sodipodi:nodetypes="ccccccccc" />
    <path
       style="fill:none;stroke:#0000c0;stroke-width:1.92988884;stroke-linecap:butt;stroke-linejoin:miter;stroke-miterlimit:4;stroke-opacity:1;stroke-dasharray:none;stroke-dashoffset:0;marker-start:none;marker-end:url(#Arrow1Send)"
       d="m 377.31332,141.17479 c 34.69031,13.22338 41.08491,11.87769 49.71764,28.08942 32.69533,27.88564 32.38941,40.76668 16.02065,51.98207"
       id="path7093-5-2-7"
       inkscape:connector-curvature="0"
       sodipodi:nodetypes="ccc" />
    <path
       sodipodi:type="arc"
       style="fill:#000000;fill-opacity:1;stroke:#b75400;stroke-width:1.25;stroke-miterlimit:4;stroke-opacity:1;stroke-dasharray:none"
       id="path7061-7-7-4"
       sodipodi:cx="370.35275"
       sodipodi:cy="360.29166"
       sodipodi:rx="3.6336496"
       sodipodi:ry="3.3541381"
       d="m 373.9864,360.29166 a 3.6336496,3.3541381 0 1 1 -7.2673,0 3.6336496,3.3541381 0 1 1 7.2673,0 z"
       transform="matrix(2.7083065,0,0,1.6421569,-630.67989,-452.04784)" />
  </g>
</svg>
