<?xml version="1.0" encoding="UTF-8" standalone="no"?>
<!-- Created with Inkscape (http://www.inkscape.org/) -->

<svg
   xmlns:osb="http://www.openswatchbook.org/uri/2009/osb"
   xmlns:dc="http://purl.org/dc/elements/1.1/"
   xmlns:cc="http://creativecommons.org/ns#"
   xmlns:rdf="http://www.w3.org/1999/02/22-rdf-syntax-ns#"
   xmlns:svg="http://www.w3.org/2000/svg"
   xmlns="http://www.w3.org/2000/svg"
   xmlns:sodipodi="http://sodipodi.sourceforge.net/DTD/sodipodi-0.dtd"
   xmlns:inkscape="http://www.inkscape.org/namespaces/inkscape"
   width="744.09448819"
   height="1052.3622047"
   id="svg2"
   version="1.1"
   inkscape:version="0.48.0 r9654"
   sodipodi:docname="MotionPrimitiveTransition.eps">
  <defs
     id="defs4">
    <marker
       inkscape:stockid="Arrow2Sstart"
       orient="auto"
       refY="0.0"
       refX="0.0"
       id="Arrow2Sstart"
       style="overflow:visible">
      <path
         id="path5832"
         style="font-size:12.0;fill-rule:evenodd;stroke-width:0.62500000;stroke-linejoin:round"
         d="M 8.7185878,4.0337352 L -2.2072895,0.016013256 L 8.7185884,-4.0017078 C 6.9730900,-1.6296469 6.9831476,1.6157441 8.7185878,4.0337352 z "
         transform="scale(0.3) translate(-2.3,0)" />
    </marker>
    <marker
       inkscape:stockid="Tail"
       orient="auto"
       refY="0.0"
       refX="0.0"
       id="Tail"
       style="overflow:visible">
      <g
         id="g5838"
         transform="scale(-1.2)">
        <path
           id="path5840"
           d="M -3.8048674,-3.9585227 L 0.54352094,0"
           style="fill:none;fill-rule:evenodd;stroke:#000000;stroke-width:0.8;marker-start:none;marker-end:none;stroke-linecap:round" />
        <path
           id="path5842"
           d="M -1.2866832,-3.9585227 L 3.0617053,0"
           style="fill:none;fill-rule:evenodd;stroke:#000000;stroke-width:0.8;marker-start:none;marker-end:none;stroke-linecap:round" />
        <path
           id="path5844"
           d="M 1.3053582,-3.9585227 L 5.6537466,0"
           style="fill:none;fill-rule:evenodd;stroke:#000000;stroke-width:0.8;marker-start:none;marker-end:none;stroke-linecap:round" />
        <path
           id="path5846"
           d="M -3.8048674,4.1775838 L 0.54352094,0.21974226"
           style="fill:none;fill-rule:evenodd;stroke:#000000;stroke-width:0.8;marker-start:none;marker-end:none;stroke-linecap:round" />
        <path
           id="path5848"
           d="M -1.2866832,4.1775838 L 3.0617053,0.21974226"
           style="fill:none;fill-rule:evenodd;stroke:#000000;stroke-width:0.8;marker-start:none;marker-end:none;stroke-linecap:round" />
        <path
           id="path5850"
           d="M 1.3053582,4.1775838 L 5.6537466,0.21974226"
           style="fill:none;fill-rule:evenodd;stroke:#000000;stroke-width:0.8;marker-start:none;marker-end:none;stroke-linecap:round" />
      </g>
    </marker>
    <marker
       inkscape:stockid="Arrow2Mend"
       orient="auto"
       refY="0.0"
       refX="0.0"
       id="Arrow2Mend"
       style="overflow:visible;">
      <path
         id="path5829"
         style="font-size:12.0;fill-rule:evenodd;stroke-width:0.62500000;stroke-linejoin:round;"
         d="M 8.7185878,4.0337352 L -2.2072895,0.016013256 L 8.7185884,-4.0017078 C 6.9730900,-1.6296469 6.9831476,1.6157441 8.7185878,4.0337352 z "
         transform="scale(0.6) rotate(180) translate(0,0)" />
    </marker>
    <marker
       inkscape:stockid="Arrow1Mend"
       orient="auto"
       refY="0.0"
       refX="0.0"
       id="Arrow1Mend"
       style="overflow:visible;">
      <path
         id="path5811"
         d="M 0.0,0.0 L 5.0,-5.0 L -12.5,0.0 L 5.0,5.0 L 0.0,0.0 z "
         style="fill-rule:evenodd;stroke:#000000;stroke-width:1.0pt;marker-start:none;"
         transform="scale(0.4) rotate(180) translate(10,0)" />
    </marker>
    <marker
       inkscape:stockid="Arrow1Send"
       orient="auto"
       refY="0.0"
       refX="0.0"
       id="Arrow1Send"
       style="overflow:visible;">
      <path
         id="path5817"
         d="M 0.0,0.0 L 5.0,-5.0 L -12.5,0.0 L 5.0,5.0 L 0.0,0.0 z "
         style="fill-rule:evenodd;stroke:#000000;stroke-width:1.0pt;marker-start:none;"
         transform="scale(0.2) rotate(180) translate(6,0)" />
    </marker>
    <marker
       inkscape:stockid="Arrow2Lend"
       orient="auto"
       refY="0.0"
       refX="0.0"
       id="Arrow2Lend"
       style="overflow:visible;">
      <path
         id="path5823"
         style="font-size:12.0;fill-rule:evenodd;stroke-width:0.62500000;stroke-linejoin:round;"
         d="M 8.7185878,4.0337352 L -2.2072895,0.016013256 L 8.7185884,-4.0017078 C 6.9730900,-1.6296469 6.9831476,1.6157441 8.7185878,4.0337352 z "
         transform="scale(1.1) rotate(180) translate(1,0)" />
    </marker>
    <marker
       inkscape:stockid="TriangleInM"
       orient="auto"
       refY="0.0"
       refX="0.0"
       id="TriangleInM"
       style="overflow:visible">
      <path
         id="path5939"
         d="M 5.77,0.0 L -2.88,5.0 L -2.88,-5.0 L 5.77,0.0 z "
         style="fill-rule:evenodd;stroke:#000000;stroke-width:1.0pt;marker-start:none"
         transform="scale(-0.4)" />
    </marker>
    <marker
       inkscape:stockid="Arrow1Mstart"
       orient="auto"
       refY="0.0"
       refX="0.0"
       id="Arrow1Mstart"
       style="overflow:visible">
      <path
         id="path5808"
         d="M 0.0,0.0 L 5.0,-5.0 L -12.5,0.0 L 5.0,5.0 L 0.0,0.0 z "
         style="fill-rule:evenodd;stroke:#000000;stroke-width:1.0pt;marker-start:none"
         transform="scale(0.4) translate(10,0)" />
    </marker>
    <marker
       inkscape:stockid="Arrow1Lend"
       orient="auto"
       refY="0.0"
       refX="0.0"
       id="Arrow1Lend"
       style="overflow:visible;">
      <path
         id="path5805"
         d="M 0.0,0.0 L 5.0,-5.0 L -12.5,0.0 L 5.0,5.0 L 0.0,0.0 z "
         style="fill-rule:evenodd;stroke:#000000;stroke-width:1.0pt;marker-start:none;"
         transform="scale(0.8) rotate(180) translate(12.5,0)" />
    </marker>
    <linearGradient
       id="linearGradient6861"
       osb:paint="solid">
      <stop
         style="stop-color:#000000;stop-opacity:1;"
         offset="0"
         id="stop6863" />
    </linearGradient>
    <marker
       inkscape:stockid="Arrow1Send"
       orient="auto"
       refY="0"
       refX="0"
       id="Arrow1Send-1"
       style="overflow:visible">
      <path
         inkscape:connector-curvature="0"
         id="path5817-7"
         d="M 0,0 5,-5 -12.5,0 5,5 0,0 z"
         style="fill-rule:evenodd;stroke:#000000;stroke-width:1pt;marker-start:none"
         transform="matrix(-0.2,0,0,-0.2,-1.2,0)" />
    </marker>
  </defs>
  <sodipodi:namedview
     id="base"
     pagecolor="#ffffff"
     bordercolor="#666666"
     borderopacity="1.0"
     inkscape:pageopacity="0.0"
     inkscape:pageshadow="2"
     inkscape:zoom="1.7888351"
     inkscape:cx="447.22918"
     inkscape:cy="606.56377"
     inkscape:document-units="px"
     inkscape:current-layer="layer1"
     showgrid="false"
     inkscape:window-width="1280"
     inkscape:window-height="999"
     inkscape:window-x="1680"
     inkscape:window-y="0"
     inkscape:window-maximized="1" />
  <metadata
     id="metadata7">
    <rdf:RDF>
      <cc:Work
         rdf:about="">
        <dc:format>image/svg+xml</dc:format>
        <dc:type
           rdf:resource="http://purl.org/dc/dcmitype/StillImage" />
        <dc:title></dc:title>
      </cc:Work>
    </rdf:RDF>
  </metadata>
  <g
     inkscape:label="Layer 1"
     inkscape:groupmode="layer"
     id="layer1">
    <path
       style="fill:#a12c00;fill-opacity:0.51666667;stroke:#000000;stroke-width:0.76020861px;stroke-linecap:butt;stroke-linejoin:miter;stroke-opacity:1"
       d="m 320.9107,265.20585 c 41.27075,2.4977 107.22647,-71.41047 111.63975,45.16988 35.98817,27.21127 54.84817,63.96341 57.84511,104.19797 -34.47148,70.04198 -71.98781,76.14203 -110.3552,64.36972 -18.33904,36.4938 9.90738,66.33254 45.85115,95.07166 27.58286,48.86212 0.70072,36.45113 -16.56761,34.85566 l -75.13471,47.25169 c 0,0 39.301,80.66687 -58.9515,-8.64289 -98.2525,-89.30973 -173.20455,108.45111 -117.43232,-68.79572 38.98031,-123.88126 -17.72635,-46.62305 4.24914,-90.89823 32.52543,-65.53066 -44.01664,-24.0361 11.6556,-129.84246 54.8696,-104.28092 147.20059,-92.73728 147.20059,-92.73728 z"
       id="path2987"
       inkscape:connector-curvature="0"
       sodipodi:nodetypes="cccccccssssc" />
    <path
       style="fill:#a1e900;fill-opacity:0.56666667;stroke:#008000;stroke-width:0.56902182px;stroke-linecap:butt;stroke-linejoin:miter;stroke-opacity:0.34583333"
       d="m 434.10917,310.40204 c -22.69833,-63.1224 30.32019,-93.92201 250.17189,-19.29972 117.23817,46.1648 53.15034,86.27224 60.95879,128.78143 8.38445,32.06365 4.65412,60.32305 -12.9595,84.22287 -19.02159,49.30393 -69.25861,75.33049 -60.51321,115.55182 -29.31841,24.42843 43.96654,89.90065 -49.18211,67.93148 l -78.90112,-72.02398 -12.37184,-36.13625 c -64.09949,32.63586 -91.67924,19.62204 -109.02665,-6.1822 -19.41663,-28.67944 -61.15885,-34.77675 -42.79528,-95.0695 72.07023,21.67064 97.34154,-36.75342 110.43613,-61.10389 0.0404,-33.48519 -18.10078,-68.35926 -55.8171,-106.67206 z"
       id="path3757"
       inkscape:connector-curvature="0"
       sodipodi:nodetypes="cccccccccccc" />
    <path
       style="fill:none;stroke:#ec0000;stroke-width:7.1127739;stroke-linecap:butt;stroke-linejoin:miter;stroke-miterlimit:4;stroke-opacity:1;stroke-dasharray:none"
       d="m 283.44525,384.15678 c 9.62812,45.85419 -32.20497,26.78114 -55.57672,31.00027 -61.74638,55.6188 -2.11256,64.55203 -12.67538,86.49461 2.30072,19.75979 25.70064,2.26514 56.06422,13.01246 -0.52021,21.33596 27.2942,64.80918 50.70159,78.8402 47.59853,-5.87027 93.25827,-12.27606 72.15224,-37.12378 -23.95945,-26.87007 -105.37017,-35.69948 -48.264,-88.02547 21.00751,-10.86256 50.75041,8.82259 58.98932,-46.69178 -25.52224,-43.58803 -117.71043,-77.4791 -121.39127,-37.50651 z"
       id="path3763"
       inkscape:connector-curvature="0"
       sodipodi:nodetypes="ccccccccc" />
    <path
       style="fill:none;stroke:#00f200;stroke-width:7.1127739;stroke-linecap:butt;stroke-linejoin:miter;stroke-miterlimit:4;stroke-opacity:1;stroke-dasharray:none"
       d="m 547.51738,328.56499 c 9.6281,45.85418 62.86046,76.15194 39.48872,80.37108 -61.74639,55.61878 -17.71305,42.35429 -28.27588,64.29687 2.30072,19.75979 -68.87729,53.54954 -39.00121,63.1487 60.41917,14.0643 87.25854,31.12988 123.34133,16.07422 47.59853,-5.87026 40.68692,-26.8194 19.5809,-51.66712 -23.95945,-26.87006 -60.11155,-38.76123 -3.00538,-91.08723 21.0075,-10.86255 50.75041,8.8226 58.98933,-46.69178 C 693.11295,319.42171 551.19822,288.5924 547.51738,328.56499 z"
       id="path3763-5"
       inkscape:connector-curvature="0"
       sodipodi:nodetypes="ccccccccc" />
    <path
       sodipodi:type="arc"
       style="fill:#000000;fill-opacity:1;stroke:#b75400;stroke-width:1.25;stroke-miterlimit:4;stroke-opacity:1;stroke-dasharray:none"
       id="path7061"
       sodipodi:cx="370.35275"
       sodipodi:cy="360.29166"
       sodipodi:rx="3.6336496"
       sodipodi:ry="3.3541381"
       d="m 373.9864,360.29166 a 3.6336496,3.3541381 0 1 1 -7.2673,0 3.6336496,3.3541381 0 1 1 7.2673,0 z"
       transform="matrix(2.7083065,0,0,2.755688,-584.86645,-679.49173)" />
    <path
       style="fill:none;stroke:#0000c0;stroke-width:2.5;stroke-linecap:butt;stroke-linejoin:miter;stroke-miterlimit:4;stroke-opacity:1;stroke-dasharray:2.5, 2.5;stroke-dashoffset:0;marker-start:none;marker-end:url(#Arrow1Send)"
       d="m 406.96877,316.12885 c -49.16314,4.30129 -133.60444,-23.29159 -136.96065,3.91316 -9.18539,16.48822 0.6201,50.9094 10.06242,65.96472"
       id="path7093"
       inkscape:connector-curvature="0"
       sodipodi:nodetypes="ccc" />
    <path
       style="fill:none;stroke:#0000c0;stroke-width:2.5;stroke-linecap:butt;stroke-linejoin:miter;stroke-miterlimit:4;stroke-opacity:1;stroke-dasharray:2.5, 2.5;stroke-dashoffset:0;marker-start:none;marker-end:url(#Arrow1Send)"
       d="m 502.57809,324.08716 c 34.69031,22.19003 63.73068,29.25658 60.37447,56.46133 32.69534,18.82044 5.74733,40.436 -10.62143,59.25644"
       id="path7093-5"
       inkscape:connector-curvature="0"
       sodipodi:nodetypes="ccc" />
    <path
       sodipodi:type="arc"
       style="fill:#000000;fill-opacity:1;stroke:#b75400;stroke-width:1.25;stroke-miterlimit:4;stroke-opacity:1;stroke-dasharray:none"
       id="path7061-7"
       sodipodi:cx="370.35275"
       sodipodi:cy="360.29166"
       sodipodi:rx="3.6336496"
       sodipodi:ry="3.3541381"
       d="m 373.9864,360.29166 a 3.6336496,3.3541381 0 1 1 -7.2673,0 3.6336496,3.3541381 0 1 1 7.2673,0 z"
       transform="matrix(2.7083065,0,0,2.755688,-509.41144,-676.72254)" />
    <path
       style="fill:none;stroke:#f10000;stroke-width:3.75000000000000000;stroke-linecap:butt;stroke-linejoin:miter;stroke-opacity:1;stroke-miterlimit:4;stroke-dasharray:3.75000000000000000, 3.75000000000000000;stroke-dashoffset:0"
       d="m 432.1248,312.77471 48.07598,2.23609"
       id="path9253"
       inkscape:connector-curvature="0" />
  </g>
</svg>
