<?xml version="1.0" encoding="UTF-8" standalone="no"?>
<!-- Created with Inkscape (http://www.inkscape.org/) -->

<svg
   xmlns:dc="http://purl.org/dc/elements/1.1/"
   xmlns:cc="http://creativecommons.org/ns#"
   xmlns:rdf="http://www.w3.org/1999/02/22-rdf-syntax-ns#"
   xmlns:svg="http://www.w3.org/2000/svg"
   xmlns="http://www.w3.org/2000/svg"
   xmlns:sodipodi="http://sodipodi.sourceforge.net/DTD/sodipodi-0.dtd"
   xmlns:inkscape="http://www.inkscape.org/namespaces/inkscape"
   id="svg2"
   version="1.1"
   inkscape:version="0.48.0 r9654"
   width="743.75"
   height="1052.5"
   xml:space="preserve"
   sodipodi:docname="PWI4PHASE.eps.2011_06_29_14_57_33.0.svg"><metadata
     id="metadata8"><rdf:RDF><cc:Work
         rdf:about=""><dc:format>image/svg+xml</dc:format><dc:type
           rdf:resource="http://purl.org/dc/dcmitype/StillImage" /></cc:Work></rdf:RDF></metadata><defs
     id="defs6"><clipPath
       clipPathUnits="userSpaceOnUse"
       id="clipPath18"><path
         d="m 0,0 2830,0 0,4132.91 -2830,0 L 0,0 z"
         id="path20" /></clipPath></defs><sodipodi:namedview
     pagecolor="#ffffff"
     bordercolor="#666666"
     borderopacity="1"
     objecttolerance="10"
     gridtolerance="10"
     guidetolerance="10"
     inkscape:pageopacity="0"
     inkscape:pageshadow="2"
     inkscape:window-width="640"
     inkscape:window-height="480"
     id="namedview4"
     showgrid="false" /><g
     id="g10"
     inkscape:groupmode="layer"
     inkscape:label="ink_ext_XXXXXX"
     transform="matrix(1.25,0,0,-1.25,0,1052.5)"><g
       id="g12"
       transform="scale(0.1,0.1)"><g
         id="g14"><g
           id="g16"
           clip-path="url(#clipPath18)"><path
             d="m 1.32812,14.8984 2823.83188,0"
             style="fill:none;stroke:#000000;stroke-opacity:1;stroke-width:7.97011;stroke-linecap:butt;stroke-linejoin:miter;stroke-miterlimit:10;stroke-dasharray:49.5413,29.7248;stroke-dashoffset:0"
             id="path22" /><path
             d="m 1958.16,2039.43 27.39,-76.68 27.42,76.68 -27.42,-30.66"
             style="fill:#000000;fill-opacity:1;fill-rule:nonzero;stroke:none"
             id="path24" /><path
             d="m 1985.55,2529.67 0,-520.9"
             style="fill:none;stroke:#000000;stroke-opacity:1;stroke-width:19.9253;stroke-linecap:butt;stroke-linejoin:miter;stroke-miterlimit:10;stroke-dasharray:none"
             id="path26" /><g
             id="g28"
             transform="scale(10,10)"><text
   transform="matrix(1,0,0,-1,166.97,223.299)"
   id="text30"><tspan
     style="fill:#000000;fill-opacity:1;fill-rule:nonzero;stroke:none;font-family:DejaVu Sans;font-variant:normal;font-weight:normal;font-size:10.9091;writing-mode:lr;-inkscape-font-specification:DejaVuSans"
     x="0"
     y="0"
     id="tspan32">g</tspan></text>

</g><path
             d="M 1.32812,261.926 2825.16,14.8984"
             style="fill:none;stroke:#000000;stroke-opacity:1;stroke-width:29.8879;stroke-linecap:butt;stroke-linejoin:miter;stroke-miterlimit:10;stroke-dasharray:none"
             id="path34" /><path
             d="m 293.199,201.461 -9.488,35.777 -15.313,-33.707 13.551,12.848"
             style="fill:#000000;fill-opacity:1;fill-rule:nonzero;stroke:none"
             id="path36" /><path
             d="m 281.949,216.387 0.082,0.621 C 276.68,149.785 273.98,82.3555 273.98,14.8984"
             style="fill:none;stroke:#000000;stroke-opacity:1;stroke-width:4.98132;stroke-linecap:butt;stroke-linejoin:miter;stroke-miterlimit:10;stroke-dasharray:none"
             id="path38" /><g
             id="g40"
             transform="scale(10,10)"><text
   transform="matrix(0.996195,-0.0871557,-0.0871557,-0.996195,9.79219,9.79727)"
   id="text42"><tspan
     style="fill:#000000;fill-opacity:1;fill-rule:nonzero;stroke:none;font-family:DejaVu Sans;font-variant:normal;font-weight:normal;font-size:10.90910324;writing-mode:lr;-inkscape-font-specification:DejaVuSans"
     x="0"
     y="0"
     id="tspan44">γ</tspan></text>

</g><path
             d="m 760.699,2437.29 148.25,1694.33"
             style="fill:none;stroke:#000000;stroke-opacity:1;stroke-width:29.8879;stroke-linecap:butt;stroke-linejoin:miter;stroke-miterlimit:10;stroke-dasharray:49.1557,29.4934;stroke-dashoffset:0"
             id="path46" /><path
             d="M 760.699,2437.29 859.531,1307.75"
             style="fill:none;stroke:#0000ff;stroke-opacity:1;stroke-width:29.8879;stroke-linecap:butt;stroke-linejoin:miter;stroke-miterlimit:10;stroke-dasharray:none"
             id="path48" /><path
             d="m 785,2439.43 c -1.172,13.4 -13.012,23.32 -26.41,22.15 -13.391,-1.17 -23.32,-13.01 -22.141,-26.4 1.172,-13.4 13,-23.32 26.403,-22.15 13.398,1.17 23.32,13 22.148,26.4 z"
             style="fill:none;stroke:#000000;stroke-opacity:1;stroke-width:7.97011;stroke-linecap:butt;stroke-linejoin:miter;stroke-miterlimit:10;stroke-dasharray:none"
             id="path50" /><path
             d="M 859.531,1307.75 958.359,178.215"
             style="fill:none;stroke:#0000ff;stroke-opacity:1;stroke-width:29.8879;stroke-linecap:butt;stroke-linejoin:miter;stroke-miterlimit:10;stroke-dasharray:none"
             id="path52" /><path
             d="m 883.828,1309.89 c -1.168,13.41 -13.008,23.29 -26.406,22.12 -13.402,-1.17 -23.32,-12.97 -22.152,-26.37 1.179,-13.39 13.011,-23.32 26.41,-22.14 13.398,1.17 23.32,12.96 22.148,26.39 z"
             style="fill:none;stroke:#000000;stroke-opacity:1;stroke-width:7.97011;stroke-linecap:butt;stroke-linejoin:miter;stroke-miterlimit:10;stroke-dasharray:none"
             id="path54" /><path
             d="M 958.359,178.215 308.871,121.387"
             style="fill:none;stroke:#000000;stroke-opacity:1;stroke-width:4.98132;stroke-linecap:butt;stroke-linejoin:miter;stroke-miterlimit:10;stroke-dasharray:none"
             id="path56" /><path
             d="m 378.16,162.441 15.43,-33.64 9.379,35.82 -11.207,-15"
             style="fill:#000000;fill-opacity:1;fill-rule:nonzero;stroke:none"
             id="path58" /><path
             d="m 493.789,2378.92 -15.43,33.67 -9.379,-35.82 11.18,14.96"
             style="fill:#000000;fill-opacity:1;fill-rule:nonzero;stroke:none"
             id="path60" /><g
             id="g66"
             transform="scale(10,10)">
</g><g
             id="g74"
             transform="scale(10,10)">
<text
   transform="matrix(0.996195,0.0871557,0.0871557,-0.996195,102.83002,180.69992)"
   id="text80"><tspan
     style="fill:#000000;fill-opacity:1;fill-rule:nonzero;stroke:none;font-family:Cmr10;font-variant:normal;font-weight:normal;font-size:10.90910324;writing-mode:lr;-inkscape-font-specification:Cmr10"
     x="0"
     y="0"
     id="tspan82">,</tspan></text>

</g><path
             d="m 926.641,1266.38 -33.789,-15.11 35.699,-9.69 -14.84,11.33"
             style="fill:#000000;fill-opacity:1;fill-rule:nonzero;stroke:none"
             id="path84" /><g
             id="g86"
             transform="scale(10,10)"><text
   transform="matrix(1,0,0,-1,104.37,132.721)"
   id="text88"><tspan
     style="fill:#000000;fill-opacity:1;fill-rule:nonzero;stroke:none;font-family:DejaVu Sans;font-variant:normal;font-weight:normal;font-size:10.9091;writing-mode:lr;-inkscape-font-specification:DejaVuSans"
     x="0"
     y="0"
     id="tspan90">q</tspan></text>

<text
   transform="matrix(1,0,0,-1,110.97,131.04092)"
   id="text92"><tspan
     style="fill:#000000;fill-opacity:1;fill-rule:nonzero;stroke:none;font-family:DejaVu Sans;font-variant:normal;font-weight:normal;font-size:7.97011;writing-mode:lr;-inkscape-font-specification:DejaVuSans"
     x="0"
     y="0"
     id="tspan94">1</tspan></text>

</g><path
             d="M 760.699,2437.29 1411.09,1508.5"
             style="fill:none;stroke:#ff0000;stroke-opacity:1;stroke-width:29.8879;stroke-linecap:butt;stroke-linejoin:miter;stroke-miterlimit:10;stroke-dasharray:none"
             id="path96" /><path
             d="m 780.66,2451.27 c -7.691,11.02 -22.89,13.71 -33.898,5.98 -11.024,-7.7 -13.711,-22.89 -5.981,-33.91 7.699,-11.02 22.891,-13.72 33.91,-5.98 11.008,7.69 13.707,22.89 5.969,33.91 z"
             style="fill:none;stroke:#000000;stroke-opacity:1;stroke-width:7.97011;stroke-linecap:butt;stroke-linejoin:miter;stroke-miterlimit:10;stroke-dasharray:none"
             id="path98" /><path
             d="m 1411.09,1508.5 0,425.19"
             style="fill:none;stroke:#000000;stroke-opacity:1;stroke-width:4.98132;stroke-linecap:butt;stroke-linejoin:miter;stroke-miterlimit:10;stroke-dasharray:47.2439,28.3463;stroke-dashoffset:0"
             id="path100" /><path
             d="m 1271.02,1770.09 -22.54,-29.41 36.05,8.48 -18.48,2.89"
             style="fill:#000000;fill-opacity:1;fill-rule:nonzero;stroke:none"
             id="path102" /><path
             d="m 1411.09,1791.96 -38.2,-2.57 -37.3,-7.69 -35.98,-12.58 -34.1,-17.38"
             style="fill:none;stroke:#000000;stroke-opacity:1;stroke-width:4.98132;stroke-linecap:butt;stroke-linejoin:miter;stroke-miterlimit:10;stroke-dasharray:58.7479,35.2487;stroke-dashoffset:0"
             id="path104" /><g
             id="g106"
             transform="scale(10,10)"><text
   transform="matrix(1,0,0,-1,143.972,177.875)"
   id="text108"><tspan
     style="fill:#000000;fill-opacity:1;fill-rule:nonzero;stroke:none;font-family:DejaVu Sans;font-variant:normal;font-weight:normal;font-size:10.9091;writing-mode:lr;-inkscape-font-specification:DejaVuSans"
     x="0"
     y="0"
     id="tspan110">q</tspan></text>

<text
   transform="matrix(1,0,0,-1,150.572,176.19492)"
   id="text112"><tspan
     style="fill:#000000;fill-opacity:1;fill-rule:nonzero;stroke:none;font-family:DejaVu Sans;font-variant:normal;font-weight:normal;font-size:7.97011;writing-mode:lr;-inkscape-font-specification:DejaVuSans"
     x="0"
     y="0"
     id="tspan114">2</tspan></text>

</g><path
             d="M 1411.09,1508.5 1890.27,480.875"
             style="fill:none;stroke:#ff0000;stroke-opacity:1;stroke-width:29.8879;stroke-linecap:butt;stroke-linejoin:miter;stroke-miterlimit:10;stroke-dasharray:none"
             id="path116" /><path
             d="m 1433.16,1518.8 c -5.7,12.2 -20.19,17.47 -32.38,11.77 -12.19,-5.68 -17.46,-20.16 -11.8,-32.36 5.71,-12.21 20.2,-17.5 32.39,-11.78 12.18,5.66 17.46,20.15 11.79,32.37 z"
             style="fill:none;stroke:#000000;stroke-opacity:1;stroke-width:7.97011;stroke-linecap:butt;stroke-linejoin:miter;stroke-miterlimit:10;stroke-dasharray:none"
             id="path118" /><path
             d="m 1694.02,1601.97 -26.01,26.33 3.44,-36.88 5.39,17.93"
             style="fill:#000000;fill-opacity:1;fill-rule:nonzero;stroke:none"
             id="path120" /><path
             d="m 1881.56,1140.84 26.02,-26.37 -3.44,36.87 -5.39,-17.89"
             style="fill:#000000;fill-opacity:1;fill-rule:nonzero;stroke:none"
             id="path122" /><g
             id="g124"
             transform="scale(10,10)"><text
   transform="matrix(0.906308,0.422618,0.422618,-0.906308,185.845,121.486)"
   id="text126"><tspan
     style="fill:#000000;fill-opacity:1;fill-rule:nonzero;stroke:none;font-family:DejaVu Sans;font-variant:normal;font-weight:normal;font-size:10.9091009;writing-mode:lr;-inkscape-font-specification:DejaVuSans"
     x="0"
     y="0"
     id="tspan128">b</tspan></text>

<text
   transform="matrix(0.906308,0.422618,0.422618,-0.906308,192.86297,122.90514)"
   id="text130"><tspan
     style="fill:#000000;fill-opacity:1;fill-rule:nonzero;stroke:none;font-family:DejaVu Sans;font-variant:normal;font-weight:normal;font-size:7.97011066;writing-mode:lr;-inkscape-font-specification:DejaVuSans"
     x="0"
     y="0"
     id="tspan132">1</tspan></text>

</g><path
             d="m 1933.59,1088.14 -26.01,26.33 3.44,-36.84 5.39,17.89"
             style="fill:#000000;fill-opacity:1;fill-rule:nonzero;stroke:none"
             id="path134" /><path
             d="m 2121.17,627.012 26.02,-26.332 -3.48,36.84 -5.39,-17.899"
             style="fill:#000000;fill-opacity:1;fill-rule:nonzero;stroke:none"
             id="path136" /><g
             id="g138"
             transform="scale(10,10)"><text
   transform="matrix(0.906308,0.422618,0.422618,-0.906308,209.631,71.6125)"
   id="text140"><tspan
     style="fill:#000000;fill-opacity:1;fill-rule:nonzero;stroke:none;font-family:DejaVu Sans;font-variant:normal;font-weight:normal;font-size:10.9091009;writing-mode:lr;-inkscape-font-specification:DejaVuSans"
     x="0"
     y="0"
     id="tspan142">a</tspan></text>

<text
   transform="matrix(0.906308,0.422618,0.422618,-0.906308,215.88764,72.676176)"
   id="text144"><tspan
     style="fill:#000000;fill-opacity:1;fill-rule:nonzero;stroke:none;font-family:DejaVu Sans;font-variant:normal;font-weight:normal;font-size:7.97011066;writing-mode:lr;-inkscape-font-specification:DejaVuSans"
     x="0"
     y="0"
     id="tspan146">1</tspan></text>

<text
   transform="matrix(0.906308,0.422618,0.422618,-0.906308,136.72181,83.20582)"
   id="text148"><tspan
     style="fill:#000000;fill-opacity:1;fill-rule:nonzero;stroke:none;font-family:DejaVu Sans;font-variant:normal;font-weight:normal;font-size:10.9091009;writing-mode:lr;-inkscape-font-specification:DejaVuSans"
     x="0"
     y="0"
     id="tspan150">m</tspan></text>

<text
   transform="matrix(0.906308,0.422618,0.422618,-0.906308,146.89369,86.095282)"
   id="text152"><tspan
     style="fill:#000000;fill-opacity:1;fill-rule:nonzero;stroke:none;font-family:DejaVu Sans;font-variant:normal;font-weight:normal;font-size:7.97011066;writing-mode:lr;-inkscape-font-specification:DejaVuSans"
     x="0"
     y="0"
     id="tspan154">t</tspan></text>

<text
   transform="matrix(0.906308,0.422618,0.422618,-0.906308,149.44643,89.139425)"
   id="text156"><tspan
     style="fill:#000000;fill-opacity:1;fill-rule:nonzero;stroke:none;font-family:Cmr10;font-variant:normal;font-weight:normal;font-size:10.9091009;writing-mode:lr;-inkscape-font-specification:Cmr10"
     x="0"
     y="0"
     id="tspan158">,</tspan></text>

<text
   transform="matrix(0.906308,0.422618,0.422618,-0.906308,152.16535,90.407279)"
   id="text160"><tspan
     style="fill:#000000;fill-opacity:1;fill-rule:nonzero;stroke:none;font-family:DejaVu Sans;font-variant:normal;font-weight:normal;font-size:10.9091009;writing-mode:lr;-inkscape-font-specification:DejaVuSans"
     x="0"
     y="0"
     id="tspan162">I</tspan></text>

<text
   transform="matrix(0.906308,0.422618,0.422618,-0.906308,157.2259,90.913142)"
   id="text164"><tspan
     style="fill:#000000;fill-opacity:1;fill-rule:nonzero;stroke:none;font-family:DejaVu Sans;font-variant:normal;font-weight:normal;font-size:7.97011066;writing-mode:lr;-inkscape-font-specification:DejaVuSans"
     x="0"
     y="0"
     id="tspan166">t</tspan></text>

</g><path
             d="m 1411.09,1508.5 0,-425.2"
             style="fill:none;stroke:#000000;stroke-opacity:1;stroke-width:4.98132;stroke-linecap:butt;stroke-linejoin:miter;stroke-miterlimit:10;stroke-dasharray:47.244,28.3464;stroke-dashoffset:0"
             id="path168" /><path
             d="m 1551.8,1123.49 26.99,25.31 -36.95,-2.46 17.77,-5.86"
             style="fill:#000000;fill-opacity:1;fill-rule:nonzero;stroke:none"
             id="path170" /><path
             d="m 1411.09,1111.66 38.17,1.84 37.77,5.5 37.07,9.07 36.1,12.64"
             style="fill:none;stroke:#000000;stroke-opacity:1;stroke-width:4.98132;stroke-linecap:butt;stroke-linejoin:miter;stroke-miterlimit:10;stroke-dasharray:58.769,35.2614;stroke-dashoffset:0"
             id="path172" /><g
             id="g174"
             transform="scale(10,10)"><text
   transform="matrix(1,2e-8,2e-8,-1,126.964,121.183)"
   id="text176"><tspan
     style="fill:#000000;fill-opacity:1;fill-rule:nonzero;stroke:none;font-family:DejaVu Sans;font-variant:normal;font-weight:normal;font-size:10.9091;writing-mode:lr;-inkscape-font-specification:DejaVuSans"
     x="0"
     y="0"
     id="tspan178">q</tspan></text>

<text
   transform="matrix(1,2e-8,2e-8,-1,133.564,119.504)"
   id="text180"><tspan
     style="fill:#000000;fill-opacity:1;fill-rule:nonzero;stroke:none;font-family:DejaVu Sans;font-variant:normal;font-weight:normal;font-size:7.97011;writing-mode:lr;-inkscape-font-specification:DejaVuSans"
     x="0"
     y="0"
     id="tspan182">3</tspan></text>

<text
   transform="matrix(0.996195,-0.0871557,-0.0871557,-0.996195,86.4988,241.252)"
   id="text184"><tspan
     style="fill:#000000;fill-opacity:1;fill-rule:nonzero;stroke:none;font-family:DejaVu Sans;font-variant:normal;font-weight:normal;font-size:10.90910324;writing-mode:lr;-inkscape-font-specification:DejaVuSans"
     x="0"
     y="0"
     id="tspan186">m</tspan></text>

<text
   transform="matrix(0.996195,-0.0871557,-0.0871557,-0.996195,96.7523,238.668)"
   id="text188"><tspan
     style="fill:#000000;fill-opacity:1;fill-rule:nonzero;stroke:none;font-family:DejaVu Sans;font-variant:normal;font-weight:normal;font-size:7.97011237;writing-mode:lr;-inkscape-font-specification:DejaVuSans"
     x="0"
     y="0"
     id="tspan190">H</tspan></text>

</g></g></g></g></g></svg>