<?xml version="1.0" encoding="UTF-8" standalone="no"?>
<!-- Created with Inkscape (http://www.inkscape.org/) -->

<svg
   xmlns:dc="http://purl.org/dc/elements/1.1/"
   xmlns:cc="http://creativecommons.org/ns#"
   xmlns:rdf="http://www.w3.org/1999/02/22-rdf-syntax-ns#"
   xmlns:svg="http://www.w3.org/2000/svg"
   xmlns="http://www.w3.org/2000/svg"
   xmlns:sodipodi="http://sodipodi.sourceforge.net/DTD/sodipodi-0.dtd"
   xmlns:inkscape="http://www.inkscape.org/namespaces/inkscape"
   id="svg2"
   version="1.1"
   inkscape:version="0.48.0 r9654"
   width="743.75"
   height="1052.5"
   xml:space="preserve"
   sodipodi:docname="PWI4PHASE.eps"
   inkscape:dataloss="true"><metadata
     id="metadata8"><rdf:RDF><cc:Work
         rdf:about=""><dc:format>image/svg+xml</dc:format><dc:type
           rdf:resource="http://purl.org/dc/dcmitype/StillImage" /><dc:title></dc:title></cc:Work></rdf:RDF></metadata><defs
     id="defs6"><clipPath
       clipPathUnits="userSpaceOnUse"
       id="clipPath18"><path
         d="m 690.113,4082.4 0,0 0,0 0,0 z"
         id="path20" /></clipPath><clipPath
       clipPathUnits="userSpaceOnUse"
       id="clipPath44"><path
         d="m -148.301,-5559.13 0,0 0,0 0,0 z"
         id="path46" /></clipPath><clipPath
       clipPathUnits="userSpaceOnUse"
       id="clipPath170"><path
         d="m 1677.06,-5680.77 0,0 0,0 0,0 z"
         id="path172" /></clipPath><clipPath
       clipPathUnits="userSpaceOnUse"
       id="clipPath210"><path
         d="m 2129.77,-4350.49 0,0 0,0 0,0 z"
         id="path212" /></clipPath><clipPath
       clipPathUnits="userSpaceOnUse"
       id="clipPath308"><path
         d="m 2129.77,-4350.49 0,0 0,0 0,0 z"
         id="path310" /></clipPath></defs><sodipodi:namedview
     pagecolor="#ffffff"
     bordercolor="#666666"
     borderopacity="1"
     objecttolerance="10"
     gridtolerance="10"
     guidetolerance="10"
     inkscape:pageopacity="0"
     inkscape:pageshadow="2"
     inkscape:window-width="1680"
     inkscape:window-height="975"
     id="namedview4"
     showgrid="false"
     inkscape:zoom="1.5241337"
     inkscape:cx="266.49125"
     inkscape:cy="745.86871"
     inkscape:window-x="0"
     inkscape:window-y="25"
     inkscape:window-maximized="1"
     inkscape:current-layer="g10" /><g
     id="g10"
     inkscape:groupmode="layer"
     inkscape:label="ink_ext_XXXXXX"
     transform="matrix(1.25,0,0,-1.25,0,1052.5)"><g
       id="g12"
       transform="scale(0.1,0.1)"><g
         id="g14"><g
           id="g16"
           clip-path="url(#clipPath18)"><g
             id="g22"
             transform="matrix(2871.6,0,0,-3118.8,719.88,7201.08)"><rect
               x="0"
               y="0"
               width="1"
               height="1"
               transform="matrix(1,0,0,-1,0,1)"
               style="fill:#000000;fill-opacity:1;fill-rule:nonzero"
               id="rect24" /></g></g></g><path
         d="m 720,4118.55 2823.86,0"
         style="fill:none;stroke:#000000;stroke-opacity:1;stroke-width:7.97011;stroke-linecap:butt;stroke-linejoin:miter;stroke-miterlimit:10;stroke-dasharray:49.5413,29.7248,0,0;stroke-dashoffset:0"
         id="path26" /><path
         d="m 2676.86,6143.1 27.39,-76.71 27.4,76.71 -27.4,-30.69"
         style="fill:#000000;fill-opacity:1;fill-rule:nonzero;stroke:none"
         id="path28" /><path
         d="m 2704.25,6633.32 0,-520.91"
         style="fill:none;stroke:#000000;stroke-opacity:1;stroke-width:19.9253;stroke-linecap:butt;stroke-linejoin:miter;stroke-miterlimit:10;stroke-dasharray:none"
         id="path30" /><g
         id="g32"
         transform="scale(10,10)"><text
           transform="matrix(1,0,0,-1,238.839,633.665)"
           id="text34"><tspan
             style="fill:#000000;fill-opacity:1;fill-rule:nonzero;stroke:none;font-family:CMBX10;font-variant:normal;font-weight:normal;font-size:10.9091;writing-mode:lr;-inkscape-font-specification:CMBX10"
             x="0"
             y="0"
             id="tspan36">g</tspan></text>
</g><path
         d="M 720,4365.6 3543.86,4118.54"
         style="fill:none;stroke:#000000;stroke-opacity:1;stroke-width:29.8879;stroke-linecap:butt;stroke-linejoin:miter;stroke-miterlimit:10;stroke-dasharray:none"
         id="path38" /><g
         id="g40"><g
           id="g42"
           clip-path="url(#clipPath44)" /></g><path
         d="m 1011.9,4305.11 -9.51,35.78 -15.312,-33.71 13.572,12.87"
         style="fill:#000000;fill-opacity:1;fill-rule:nonzero;stroke:none"
         id="path48" /><path
         d="m 1000.65,4320.05 0.05,0.61 c -5.345,-67.23 -8.02,-134.66 -8.02,-202.12"
         style="fill:none;stroke:#000000;stroke-opacity:1;stroke-width:4.98132;stroke-linecap:butt;stroke-linejoin:miter;stroke-miterlimit:10;stroke-dasharray:none"
         id="path50" /><g
         id="g52"
         transform="scale(10,10)"><text
           transform="matrix(0.996195,-0.0871557,-0.0871557,-0.996195,81.6609,420.163)"
           id="text54"><tspan
             style="fill:#000000;fill-opacity:1;fill-rule:nonzero;stroke:none;font-family:CMMI10;font-variant:normal;font-weight:normal;font-size:10.90910324;writing-mode:lr;-inkscape-font-specification:CMMI10"
             x="0"
             y="0"
             id="tspan56">γ</tspan></text>
</g><path
         d="m 1479.41,6540.95 148.24,1694.32"
         style="fill:none;stroke:#000000;stroke-opacity:1;stroke-width:29.8879;stroke-linecap:butt;stroke-linejoin:miter;stroke-miterlimit:10;stroke-dasharray:49.1557,29.4934,0,0;stroke-dashoffset:0"
         id="path58" /><path
         d="m 1479.41,6540.95 98.82,-1129.54"
         style="fill:none;stroke:#0000ff;stroke-opacity:1;stroke-width:29.8879;stroke-linecap:butt;stroke-linejoin:miter;stroke-miterlimit:10;stroke-dasharray:none"
         id="path60" /><path
         d="m 1503.68,6543.07 c -1.17,13.41 -12.99,23.32 -26.39,22.15 -13.4,-1.17 -23.32,-12.99 -22.15,-26.39 1.17,-13.4 12.99,-23.32 26.4,-22.15 13.4,1.17 23.32,12.99 22.14,26.39 z"
         style="fill:none;stroke:#000000;stroke-opacity:1;stroke-width:7.97011;stroke-linecap:butt;stroke-linejoin:miter;stroke-miterlimit:10;stroke-dasharray:none"
         id="path62" /><path
         d="m 1578.23,5411.41 98.83,-1129.54"
         style="fill:none;stroke:#0000ff;stroke-opacity:1;stroke-width:29.8879;stroke-linecap:butt;stroke-linejoin:miter;stroke-miterlimit:10;stroke-dasharray:none"
         id="path64" /><path
         d="m 1602.51,5413.54 c -1.17,13.4 -12.99,23.31 -26.4,22.14 -13.4,-1.17 -23.31,-12.99 -22.15,-26.39 1.18,-13.41 13,-23.32 26.4,-22.15 13.4,1.17 23.32,12.99 22.15,26.4 z"
         style="fill:none;stroke:#000000;stroke-opacity:1;stroke-width:7.97011;stroke-linecap:butt;stroke-linejoin:miter;stroke-miterlimit:10;stroke-dasharray:none"
         id="path66" /><g
         id="g68"
         transform="scale(10,10)"><text
           transform="matrix(0.996195,0.0871557,0.0871557,-0.996195,162.75,484.65)"
           id="text70"><tspan
             style="fill:#ffffff;fill-opacity:1;fill-rule:nonzero;stroke:none;font-family:Arial;font-variant:normal;font-weight:normal;font-size:10.7597032;writing-mode:lr;-inkscape-font-specification:Arial"
             x="0"
             y="0"
             id="tspan72"></tspan></text>
</g><g
         id="g74"
         transform="scale(10,10)"><text
           transform="matrix(0.996195,0.0871557,0.0871557,-0.996195,162.75,484.65)"
           id="text76"><tspan
             style="fill:#000000;fill-opacity:1;fill-rule:nonzero;stroke:none;font-family:Arial;font-variant:normal;font-weight:normal;font-size:10.7597032;writing-mode:lr;-inkscape-font-specification:Arial"
             x="0"
             y="0"
             id="tspan78"></tspan></text>
</g><path
         d="m 1677.06,4281.87 -649.49,-56.83"
         style="fill:none;stroke:#000000;stroke-opacity:1;stroke-width:4.98132;stroke-linecap:butt;stroke-linejoin:miter;stroke-miterlimit:10;stroke-dasharray:none"
         id="path82" /><path
         d="m 1096.84,4266.11 15.45,-33.65 9.36,35.82 -11.19,-14.98"
         style="fill:#000000;fill-opacity:1;fill-rule:nonzero;stroke:none"
         id="path86" /><g
         id="g90"
         transform="scale(10,10)" /><path
         d="m 1212.47,6482.59 -15.44,33.66 -9.37,-35.82 11.19,14.98"
         style="fill:#000000;fill-opacity:1;fill-rule:nonzero;stroke:none"
         id="path98" /><g
         id="g104"
         transform="scale(10,10)"><text
           transform="matrix(0.996195,0.0871557,0.0871557,-0.996195,112.165,605.272)"
           id="text106"><tspan
             style="fill:#000000;fill-opacity:1;fill-rule:nonzero;stroke:none;font-family:CMBX10;font-variant:normal;font-weight:normal;font-size:10.90910324;writing-mode:lr;-inkscape-font-specification:CMBX10"
             x="0"
             y="0"
             id="tspan108">b</tspan></text>
</g><path
         d="m 1280.41,5420.36 15.44,-33.66 9.37,35.82 -11.19,-14.97"
         style="fill:#000000;fill-opacity:1;fill-rule:nonzero;stroke:none"
         id="path118" /><g
         id="g122"
         transform="scale(10,10)"><text
           transform="matrix(0.996195,0.0871557,0.0871557,-0.996195,117.459,550.271)"
           id="text124"><tspan
             style="fill:#000000;fill-opacity:1;fill-rule:nonzero;stroke:none;font-family:CMBX10;font-variant:normal;font-weight:normal;font-size:10.90910324;writing-mode:lr;-inkscape-font-specification:CMBX10"
             x="0"
             y="0"
             id="tspan126">a</tspan></text>
</g><g
         id="g132"
         transform="scale(10,10)"><text
           transform="matrix(0.996195,0.0871557,0.0871557,-0.996195,152.85,597.65)"
           id="text134"><tspan
             style="fill:#ffffff;fill-opacity:1;fill-rule:nonzero;stroke:none;font-family:Arial;font-variant:normal;font-weight:normal;font-size:10.7597032;writing-mode:lr;-inkscape-font-specification:Arial"
             x="0"
             y="0"
             id="tspan136"></tspan></text>
</g><g
         id="g138"
         transform="scale(10,10)"><text
           transform="matrix(0.996195,0.0871557,0.0871557,-0.996195,152.85,597.65)"
           id="text140"><tspan
             style="fill:#000000;fill-opacity:1;fill-rule:nonzero;stroke:none;font-family:Arial;font-variant:normal;font-weight:normal;font-size:10.7597032;writing-mode:lr;-inkscape-font-specification:Arial"
             x="0"
             y="0"
             id="tspan142"></tspan></text>
<text
           transform="matrix(0.996195,0.0871557,0.0871557,-0.996195,174.699,591.066)"
           id="text152"><tspan
             style="fill:#000000;fill-opacity:1;fill-rule:nonzero;stroke:none;font-family:CMR10;font-variant:normal;font-weight:normal;font-size:10.90910324;writing-mode:lr;-inkscape-font-specification:CMR10"
             x="0"
             y="0"
             id="tspan154">,</tspan></text>
</g><g
         id="g166"><g
           id="g168"
           clip-path="url(#clipPath170)" /></g><path
         d="m 1645.32,5370.05 -33.8,-15.12 35.73,-9.71 -14.87,11.33"
         style="fill:#000000;fill-opacity:1;fill-rule:nonzero;stroke:none"
         id="path174" /><g
         id="g178"
         transform="scale(10,10)"><text
           transform="matrix(1,0,0,-1,176.239,543.087)"
           id="text180"><tspan
             style="fill:#000000;fill-opacity:1;fill-rule:nonzero;stroke:none;font-family:CMBX10;font-variant:normal;font-weight:normal;font-size:10.9091;writing-mode:lr;-inkscape-font-specification:CMBX10"
             x="0"
             y="0"
             id="tspan182">q</tspan></text>
<text
           transform="matrix(1,0,0,-1,182.839,541.407)"
           id="text184"><tspan
             style="fill:#000000;fill-opacity:1;fill-rule:nonzero;stroke:none;font-family:CMR8;font-variant:normal;font-weight:normal;font-size:7.97011;writing-mode:lr;-inkscape-font-specification:CMR8"
             x="0"
             y="0"
             id="tspan186">1</tspan></text>
</g><path
         d="m 1479.41,6540.95 650.36,-928.8"
         style="fill:none;stroke:#ff0000;stroke-opacity:1;stroke-width:29.8879;stroke-linecap:butt;stroke-linejoin:miter;stroke-miterlimit:10;stroke-dasharray:none"
         id="path188" /><path
         d="m 1499.37,6554.93 c -7.72,11.02 -22.91,13.69 -33.93,5.98 -11.02,-7.71 -13.7,-22.91 -5.98,-33.93 7.71,-11.02 22.91,-13.7 33.93,-5.98 11.02,7.71 13.7,22.91 5.98,33.93 z"
         style="fill:none;stroke:#000000;stroke-opacity:1;stroke-width:7.97011;stroke-linecap:butt;stroke-linejoin:miter;stroke-miterlimit:10;stroke-dasharray:none"
         id="path190" /><g
         id="g192"
         transform="scale(10,10)"><text
           transform="matrix(0.819152,0.573576,0.573576,-0.819152,180.45,607.65)"
           id="text194"><tspan
             style="fill:#ffffff;fill-opacity:1;fill-rule:nonzero;stroke:none;font-family:Arial;font-variant:normal;font-weight:normal;font-size:10.75969692;writing-mode:lr;-inkscape-font-specification:Arial"
             x="0"
             y="0"
             id="tspan196"></tspan></text>
</g><g
         id="g198"
         transform="scale(10,10)"><text
           transform="matrix(0.819152,0.573576,0.573576,-0.819152,180.45,607.65)"
           id="text200"><tspan
             style="fill:#000000;fill-opacity:1;fill-rule:nonzero;stroke:none;font-family:Arial;font-variant:normal;font-weight:normal;font-size:10.75969692;writing-mode:lr;-inkscape-font-specification:Arial"
             x="0"
             y="0"
             id="tspan202"></tspan></text>
</g><path
         d="m 2129.77,5612.15 0,425.2"
         style="fill:none;stroke:#000000;stroke-opacity:1;stroke-width:4.98132;stroke-linecap:butt;stroke-linejoin:miter;stroke-miterlimit:10;stroke-dasharray:47.2439,28.3463,0,0;stroke-dashoffset:0"
         id="path204" /><g
         id="g206"><g
           id="g208"
           clip-path="url(#clipPath210)" /></g><path
         d="m 1989.7,5873.74 -22.52,-29.39 36.04,8.47 -18.47,2.89"
         style="fill:#000000;fill-opacity:1;fill-rule:nonzero;stroke:none"
         id="path214" /><path
         d="m 2129.77,5895.61 -38.19,-2.58 -37.32,-7.66 -35.96,-12.59 -34.09,-17.39"
         style="fill:none;stroke:#000000;stroke-opacity:1;stroke-width:4.98132;stroke-linecap:butt;stroke-linejoin:miter;stroke-miterlimit:10;stroke-dasharray:58.7479,35.2487,0,0;stroke-dashoffset:0"
         id="path216" /><g
         id="g218"
         transform="scale(10,10)"><text
           transform="matrix(1,0,0,-1,215.841,588.241)"
           id="text220"><tspan
             style="fill:#000000;fill-opacity:1;fill-rule:nonzero;stroke:none;font-family:CMBX10;font-variant:normal;font-weight:normal;font-size:10.9091;writing-mode:lr;-inkscape-font-specification:CMBX10"
             x="0"
             y="0"
             id="tspan222">q</tspan></text>
<text
           transform="matrix(1,0,0,-1,222.441,586.561)"
           id="text224"><tspan
             style="fill:#000000;fill-opacity:1;fill-rule:nonzero;stroke:none;font-family:CMR8;font-variant:normal;font-weight:normal;font-size:7.97011;writing-mode:lr;-inkscape-font-specification:CMR8"
             x="0"
             y="0"
             id="tspan226">2</tspan></text>
</g><path
         d="M 2129.77,5612.15 2608.96,4584.53"
         style="fill:none;stroke:#ff0000;stroke-opacity:1;stroke-width:29.8879;stroke-linecap:butt;stroke-linejoin:miter;stroke-miterlimit:10;stroke-dasharray:none"
         id="path228" /><path
         d="m 2151.85,5622.45 c -5.69,12.19 -20.19,17.46 -32.38,11.78 -12.19,-5.68 -17.47,-20.18 -11.78,-32.37 5.68,-12.2 20.18,-17.47 32.37,-11.79 12.2,5.68 17.47,20.18 11.79,32.38 z"
         style="fill:none;stroke:#000000;stroke-opacity:1;stroke-width:7.97011;stroke-linecap:butt;stroke-linejoin:miter;stroke-miterlimit:10;stroke-dasharray:none"
         id="path230" /><path
         d="m 2412.7,5705.61 -26.02,26.34 3.44,-36.87 5.4,17.91"
         style="fill:#000000;fill-opacity:1;fill-rule:nonzero;stroke:none"
         id="path236" /><path
         d="m 2600.25,5244.48 26.02,-26.34 -3.45,36.86 -5.39,-17.9"
         style="fill:#000000;fill-opacity:1;fill-rule:nonzero;stroke:none"
         id="path238" /><g
         id="g242"
         transform="scale(10,10)"><text
           transform="matrix(0.906308,0.422618,0.422618,-0.906308,257.714,531.851)"
           id="text244"><tspan
             style="fill:#000000;fill-opacity:1;fill-rule:nonzero;stroke:none;font-family:CMBX10;font-variant:normal;font-weight:normal;font-size:10.9091009;writing-mode:lr;-inkscape-font-specification:CMBX10"
             x="0"
             y="0"
             id="tspan246">b</tspan></text>
<text
           transform="matrix(0.906308,0.422618,0.422618,-0.906308,264.73196,533.27014)"
           id="text248"><tspan
             style="fill:#000000;fill-opacity:1;fill-rule:nonzero;stroke:none;font-family:CMR8;font-variant:normal;font-weight:normal;font-size:7.97011066;writing-mode:lr;-inkscape-font-specification:CMR8"
             x="0"
             y="0"
             id="tspan250">1</tspan></text>
</g><path
         d="m 2652.29,5191.8 -26.02,26.34 3.45,-36.87 5.39,17.91"
         style="fill:#000000;fill-opacity:1;fill-rule:nonzero;stroke:none"
         id="path254" /><path
         d="m 2839.84,4730.66 26.02,-26.34 -3.45,36.87 -5.39,-17.9"
         style="fill:#000000;fill-opacity:1;fill-rule:nonzero;stroke:none"
         id="path256" /><g
         id="g260"
         transform="scale(10,10)"><text
           transform="matrix(0.906308,0.422618,0.422618,-0.906308,281.5,481.978)"
           id="text262"><tspan
             style="fill:#000000;fill-opacity:1;fill-rule:nonzero;stroke:none;font-family:CMBX10;font-variant:normal;font-weight:normal;font-size:10.9091009;writing-mode:lr;-inkscape-font-specification:CMBX10"
             x="0"
             y="0"
             id="tspan264">a</tspan></text>
<text
           transform="matrix(0.906308,0.422618,0.422618,-0.906308,287.75664,483.04167)"
           id="text266"><tspan
             style="fill:#000000;fill-opacity:1;fill-rule:nonzero;stroke:none;font-family:CMR8;font-variant:normal;font-weight:normal;font-size:7.97011066;writing-mode:lr;-inkscape-font-specification:CMR8"
             x="0"
             y="0"
             id="tspan268">1</tspan></text>
</g><g
         id="g270"
         transform="scale(10,10)"><text
           transform="matrix(0.906308,0.422618,0.422618,-0.906308,236.95,509.85)"
           id="text272"><tspan
             style="fill:#ffffff;fill-opacity:1;fill-rule:nonzero;stroke:none;font-family:Arial;font-variant:normal;font-weight:normal;font-size:10.75970089;writing-mode:lr;-inkscape-font-specification:Arial"
             x="0"
             y="0"
             id="tspan274"></tspan></text>
</g><g
         id="g276"
         transform="scale(10,10)"><text
           transform="matrix(0.906308,0.422618,0.422618,-0.906308,236.95,509.85)"
           id="text278"><tspan
             style="fill:#000000;fill-opacity:1;fill-rule:nonzero;stroke:none;font-family:Arial;font-variant:normal;font-weight:normal;font-size:10.75970089;writing-mode:lr;-inkscape-font-specification:Arial"
             x="0"
             y="0"
             id="tspan280"></tspan></text>
<text
           transform="matrix(0.906308,0.422618,0.422618,-0.906308,208.59103,493.57112)"
           id="text282"><tspan
             style="fill:#000000;fill-opacity:1;fill-rule:nonzero;stroke:none;font-family:CMBX10;font-variant:normal;font-weight:normal;font-size:10.9091009;writing-mode:lr;-inkscape-font-specification:CMBX10"
             x="0"
             y="0"
             id="tspan284">m</tspan></text>
<text
           transform="matrix(0.906308,0.422618,0.422618,-0.906308,218.76293,496.46057)"
           id="text286"><tspan
             style="fill:#000000;fill-opacity:1;fill-rule:nonzero;stroke:none;font-family:CMMI8;font-variant:normal;font-weight:normal;font-size:7.97011066;writing-mode:lr;-inkscape-font-specification:CMMI8"
             x="0"
             y="0"
             id="tspan288">t</tspan></text>
<text
           transform="matrix(0.906308,0.422618,0.422618,-0.906308,221.31566,499.50471)"
           id="text290"><tspan
             style="fill:#000000;fill-opacity:1;fill-rule:nonzero;stroke:none;font-family:CMR10;font-variant:normal;font-weight:normal;font-size:10.9091009;writing-mode:lr;-inkscape-font-specification:CMR10"
             x="0"
             y="0"
             id="tspan292">,</tspan></text>
<text
           transform="matrix(0.906308,0.422618,0.422618,-0.906308,224.03458,500.77257)"
           id="text294"><tspan
             style="fill:#000000;fill-opacity:1;fill-rule:nonzero;stroke:none;font-family:CMBX10;font-variant:normal;font-weight:normal;font-size:10.9091009;writing-mode:lr;-inkscape-font-specification:CMBX10"
             x="0"
             y="0"
             id="tspan296">I</tspan></text>
<text
           transform="matrix(0.906308,0.422618,0.422618,-0.906308,229.09513,501.27842)"
           id="text298"><tspan
             style="fill:#000000;fill-opacity:1;fill-rule:nonzero;stroke:none;font-family:CMMI8;font-variant:normal;font-weight:normal;font-size:7.97011066;writing-mode:lr;-inkscape-font-specification:CMMI8"
             x="0"
             y="0"
             id="tspan300">t</tspan></text>
</g><path
         d="m 2129.77,5612.15 0,-425.19"
         style="fill:none;stroke:#000000;stroke-opacity:1;stroke-width:4.98132;stroke-linecap:butt;stroke-linejoin:miter;stroke-miterlimit:10;stroke-dasharray:47.244,28.3464,0,0;stroke-dashoffset:0"
         id="path302" /><g
         id="g304"><g
           id="g306"
           clip-path="url(#clipPath308)" /></g><path
         d="m 2270.47,5227.16 27.01,25.32 -36.94,-2.47 17.76,-5.87"
         style="fill:#000000;fill-opacity:1;fill-rule:nonzero;stroke:none"
         id="path312" /><path
         d="m 2129.77,5215.3 38.19,1.84 37.77,5.5 37.05,9.09 36.1,12.65"
         style="fill:none;stroke:#000000;stroke-opacity:1;stroke-width:4.98132;stroke-linecap:butt;stroke-linejoin:miter;stroke-miterlimit:10;stroke-dasharray:58.769,35.2614,0,0;stroke-dashoffset:0"
         id="path314" /><g
         id="g316"
         transform="scale(10,10)"><text
           transform="matrix(1,2e-8,2e-8,-1,198.833,531.549)"
           id="text318"><tspan
             style="fill:#000000;fill-opacity:1;fill-rule:nonzero;stroke:none;font-family:CMBX10;font-variant:normal;font-weight:normal;font-size:10.9091;writing-mode:lr;-inkscape-font-specification:CMBX10"
             x="0"
             y="0"
             id="tspan320">q</tspan></text>
<text
           transform="matrix(1,2e-8,2e-8,-1,205.433,529.869)"
           id="text322"><tspan
             style="fill:#000000;fill-opacity:1;fill-rule:nonzero;stroke:none;font-family:CMR8;font-variant:normal;font-weight:normal;font-size:7.97011;writing-mode:lr;-inkscape-font-specification:CMR8"
             x="0"
             y="0"
             id="tspan324">3</tspan></text>
</g><g
         id="g326"
         transform="scale(10,10)"><text
           transform="matrix(0.996195,-0.0871557,-0.0871557,-0.996195,147.95,654.05)"
           id="text328"><tspan
             style="fill:#ffffff;fill-opacity:1;fill-rule:nonzero;stroke:none;font-family:Arial;font-variant:normal;font-weight:normal;font-size:10.7597032;writing-mode:lr;-inkscape-font-specification:Arial"
             x="0"
             y="0"
             id="tspan330"></tspan></text>
</g><g
         id="g332"
         transform="scale(10,10)"><text
           transform="matrix(0.996195,-0.0871557,-0.0871557,-0.996195,147.95,654.05)"
           id="text334"><tspan
             style="fill:#000000;fill-opacity:1;fill-rule:nonzero;stroke:none;font-family:Arial;font-variant:normal;font-weight:normal;font-size:10.7597032;writing-mode:lr;-inkscape-font-specification:Arial"
             x="0"
             y="0"
             id="tspan336"></tspan></text>
<text
           transform="matrix(0.996195,-0.0871557,-0.0871557,-0.996195,158.36761,651.61719)"
           id="text338"><tspan
             style="fill:#000000;fill-opacity:1;fill-rule:nonzero;stroke:none;font-family:CMBX10;font-variant:normal;font-weight:normal;font-size:10.90910324;writing-mode:lr;-inkscape-font-specification:CMBX10"
             x="0"
             y="0"
             id="tspan340">m</tspan></text>
<text
           transform="matrix(0.996195,-0.0871557,-0.0871557,-0.996195,168.621,649.034)"
           id="text342"><tspan
             style="fill:#000000;fill-opacity:1;fill-rule:nonzero;stroke:none;font-family:CMMI8;font-variant:normal;font-weight:normal;font-size:7.97011237;writing-mode:lr;-inkscape-font-specification:CMMI8"
             x="0"
             y="0"
             id="tspan344">H</tspan></text>
</g></g></g></svg>